<svg width="699" height="700" viewBox="0 0 699 700" fill="none" xmlns="http://www.w3.org/2000/svg">
<g opacity="0.992083">
<path d="M623.548 350H340.253H623.548Z" fill="#5F5FD3"/>
<path d="M623.548 350H340.253" stroke="#6F6F91" stroke-width="3.46"/>
</g>
<g opacity="0.992083">
<path d="M622.505 373.885L340.288 349.194L622.505 373.885Z" fill="#5F5FD3"/>
<path d="M622.505 373.885L340.288 349.194" stroke="#6F6F91" stroke-width="3.46"/>
</g>
<g opacity="0.992083">
<path d="M619.384 397.588L340.393 348.394L619.384 397.588Z" fill="#5F5FD3"/>
<path d="M619.384 397.588L340.393 348.394" stroke="#6F6F91" stroke-width="3.46"/>
</g>
<g opacity="0.992083">
<path d="M647.843 429.941L306.935 338.595L647.843 429.941Z" fill="#5F5FD3"/>
<path d="M647.843 429.941L306.935 338.595" stroke="#6F6F91" stroke-width="3.46"/>
</g>
<g opacity="0.992083">
<path d="M689.022 473.576L258.81 316.991L689.022 473.576Z" fill="#5F5FD3"/>
<path d="M689.022 473.576L258.81 316.991" stroke="#6F6F91" stroke-width="3.46"/>
</g>
<g opacity="0.992083">
<path d="M597.872 465.817L341.119 346.092L597.872 465.817Z" fill="#5F5FD3"/>
<path d="M597.872 465.817L341.119 346.092" stroke="#6F6F91" stroke-width="3.46"/>
</g>
<g opacity="0.992083">
<path d="M586.832 487.024L341.492 345.376L586.832 487.024Z" fill="#5F5FD3"/>
<path d="M586.832 487.024L341.492 345.376" stroke="#6F6F91" stroke-width="3.46"/>
</g>
<g opacity="0.992083">
<path d="M573.986 507.187L341.925 344.696L573.986 507.187Z" fill="#5F5FD3"/>
<path d="M573.986 507.187L341.925 344.696" stroke="#6F6F91" stroke-width="3.46"/>
</g>
<g opacity="0.992083">
<path d="M586.106 548.536L315.743 321.674L586.106 548.536Z" fill="#5F5FD3"/>
<path d="M586.106 548.536L315.743 321.674" stroke="#6F6F91" stroke-width="3.46"/>
</g>
<g opacity="0.992083">
<path d="M604.986 605.486L281.256 281.756L604.986 605.486Z" fill="#5F5FD3"/>
<path d="M604.986 605.486L281.256 281.756" stroke="#6F6F91" stroke-width="3.46"/>
</g>
<g opacity="0.992083">
<path d="M548.036 586.606L321.174 316.243L548.036 586.606Z" fill="#5F5FD3"/>
<path d="M548.036 586.606L321.174 316.243" stroke="#6F6F91" stroke-width="3.46"/>
</g>
<g opacity="0.992083">
<path d="M506.688 574.487L344.196 342.425L506.688 574.487Z" fill="#5F5FD3"/>
<path d="M506.687 574.487L344.196 342.425" stroke="#6F6F91" stroke-width="3.46"/>
</g>
<g opacity="0.992083">
<path d="M486.524 587.332L344.876 341.992L486.524 587.332Z" fill="#5F5FD3"/>
<path d="M486.524 587.332L344.876 341.992" stroke="#6F6F91" stroke-width="3.46"/>
</g>
<g opacity="0.992083">
<path d="M465.317 598.371L345.592 341.619L465.317 598.371Z" fill="#5F5FD3"/>
<path d="M465.317 598.371L345.592 341.619" stroke="#6F6F91" stroke-width="3.46"/>
</g>
<g opacity="0.992083">
<path d="M455.139 640.24L334.429 308.591L455.139 640.24Z" fill="#5F5FD3"/>
<path d="M455.139 640.24L334.429 308.591" stroke="#6F6F91" stroke-width="3.46"/>
</g>
<g opacity="0.992083">
<path d="M443.014 699L324.521 256.778L443.014 699Z" fill="#5F5FD3"/>
<path d="M443.014 699L324.521 256.778" stroke="#6F6F91" stroke-width="3.46"/>
</g>
<g opacity="0.992083">
<path d="M403.134 654.175L341.848 306.603L403.134 654.175Z" fill="#5F5FD3"/>
<path d="M403.134 654.175L341.848 306.603" stroke="#6F6F91" stroke-width="3.46"/>
</g>
<g opacity="0.992083">
<path d="M373.385 623.005L348.694 340.788L373.385 623.005Z" fill="#5F5FD3"/>
<path d="M373.385 623.005L348.694 340.788" stroke="#6F6F91" stroke-width="3.46"/>
</g>
<g opacity="0.992083">
<path d="M349.5 624.048V340.753V624.048Z" fill="#5F5FD3"/>
<path d="M349.5 624.048V340.753" stroke="#6F6F91" stroke-width="3.46"/>
</g>
<g opacity="0.992083">
<path d="M325.615 623.005L350.306 340.788L325.615 623.005Z" fill="#5F5FD3"/>
<path d="M325.615 623.005L350.306 340.788" stroke="#6F6F91" stroke-width="3.46"/>
</g>
<g opacity="0.992083">
<path d="M295.866 654.175L357.152 306.603L295.866 654.175Z" fill="#5F5FD3"/>
<path d="M295.866 654.175L357.152 306.603" stroke="#6F6F91" stroke-width="3.46"/>
</g>
<g opacity="0.992083">
<path d="M255.986 699L374.479 256.778L255.986 699Z" fill="#5F5FD3"/>
<path d="M255.986 699L374.479 256.778" stroke="#6F6F91" stroke-width="3.46"/>
</g>
<g opacity="0.992083">
<path d="M243.861 640.24L364.572 308.591L243.861 640.24Z" fill="#5F5FD3"/>
<path d="M243.861 640.24L364.572 308.591" stroke="#6F6F91" stroke-width="3.46"/>
</g>
<g opacity="0.992083">
<path d="M233.683 598.371L353.408 341.619L233.683 598.371Z" fill="#5F5FD3"/>
<path d="M233.683 598.371L353.408 341.619" stroke="#6F6F91" stroke-width="3.46"/>
</g>
<g opacity="0.992083">
<path d="M212.476 587.332L354.124 341.992L212.476 587.332Z" fill="#5F5FD3"/>
<path d="M212.476 587.332L354.124 341.992" stroke="#6F6F91" stroke-width="3.46"/>
</g>
<g opacity="0.992083">
<path d="M192.312 574.487L354.804 342.425L192.312 574.487Z" fill="#5F5FD3"/>
<path d="M192.312 574.487L354.804 342.425" stroke="#6F6F91" stroke-width="3.46"/>
</g>
<g opacity="0.992083">
<path d="M150.964 586.606L377.826 316.243L150.964 586.606Z" fill="#5F5FD3"/>
<path d="M150.964 586.606L377.826 316.243" stroke="#6F6F91" stroke-width="3.46"/>
</g>
<g opacity="0.992083">
<path d="M94.0146 605.486L417.744 281.756L94.0146 605.486Z" fill="#5F5FD3"/>
<path d="M94.0146 605.486L417.744 281.756" stroke="#6F6F91" stroke-width="3.46"/>
</g>
<g opacity="0.992083">
<path d="M112.894 548.536L383.257 321.674L112.894 548.536Z" fill="#5F5FD3"/>
<path d="M112.894 548.536L383.257 321.674" stroke="#6F6F91" stroke-width="3.46"/>
</g>
<g opacity="0.992083">
<path d="M125.013 507.187L357.075 344.696L125.013 507.187Z" fill="#5F5FD3"/>
<path d="M125.013 507.187L357.075 344.696" stroke="#6F6F91" stroke-width="3.46"/>
</g>
<g opacity="0.992083">
<path d="M112.168 487.024L357.509 345.376L112.168 487.024Z" fill="#5F5FD3"/>
<path d="M112.168 487.024L357.509 345.376" stroke="#6F6F91" stroke-width="3.46"/>
</g>
<g opacity="0.992083">
<path d="M101.129 465.817L357.881 346.092L101.129 465.817Z" fill="#5F5FD3"/>
<path d="M101.129 465.817L357.881 346.092" stroke="#6F6F91" stroke-width="3.46"/>
</g>
<g opacity="0.992083">
<path d="M59.2598 455.639L390.909 334.928L59.2598 455.639Z" fill="#5F5FD3"/>
<path d="M59.2598 455.639L390.909 334.928" stroke="#6F6F91" stroke-width="3.46"/>
</g>
<g opacity="0.992083">
<path d="M0.5 443.514L442.723 325.021L0.5 443.514Z" fill="#5F5FD3"/>
<path d="M0.5 443.514L442.722 325.021" stroke="#6F6F91" stroke-width="3.46"/>
</g>
<g opacity="0.992083">
<path d="M45.3257 403.634L392.898 342.348L45.3257 403.634Z" fill="#5F5FD3"/>
<path d="M45.3257 403.634L392.898 342.348" stroke="#6F6F91" stroke-width="3.46"/>
</g>
<g opacity="0.992083">
<path d="M76.4951 373.885L358.712 349.194L76.4951 373.885Z" fill="#5F5FD3"/>
<path d="M76.4951 373.885L358.712 349.194" stroke="#6F6F91" stroke-width="3.46"/>
</g>
<g opacity="0.992083">
<path d="M75.4521 350H358.747H75.4521Z" fill="#5F5FD3"/>
<path d="M75.4521 350H358.747" stroke="#6F6F91" stroke-width="3.46"/>
</g>
<g opacity="0.992083">
<path d="M76.4951 326.115L358.712 350.806L76.4951 326.115Z" fill="#5F5FD3"/>
<path d="M76.4951 326.115L358.712 350.806" stroke="#6F6F91" stroke-width="3.46"/>
</g>
<g opacity="0.992083">
<path d="M45.3257 296.366L392.898 357.652L45.3257 296.366Z" fill="#5F5FD3"/>
<path d="M45.3257 296.366L392.898 357.652" stroke="#6F6F91" stroke-width="3.46"/>
</g>
<g opacity="0.992083">
<path d="M0.5 256.486L442.722 374.979L0.5 256.486Z" fill="#5F5FD3"/>
<path d="M0.5 256.486L442.722 374.979" stroke="#6F6F91" stroke-width="3.46"/>
</g>
<g opacity="0.992083">
<path d="M59.2598 244.361L390.909 365.072L59.2598 244.361Z" fill="#5F5FD3"/>
<path d="M59.2598 244.361L390.909 365.072" stroke="#6F6F91" stroke-width="3.46"/>
</g>
<g opacity="0.992083">
<path d="M101.129 234.182L357.881 353.908L101.129 234.182Z" fill="#5F5FD3"/>
<path d="M101.129 234.182L357.881 353.908" stroke="#6F6F91" stroke-width="3.46"/>
</g>
<g opacity="0.992083">
<path d="M112.168 212.976L357.509 354.624L112.168 212.976Z" fill="#5F5FD3"/>
<path d="M112.168 212.976L357.509 354.624" stroke="#6F6F91" stroke-width="3.46"/>
</g>
<g opacity="0.992083">
<path d="M125.013 192.813L357.075 355.304L125.013 192.813Z" fill="#5F5FD3"/>
<path d="M125.013 192.813L357.075 355.304" stroke="#6F6F91" stroke-width="3.46"/>
</g>
<g opacity="0.992083">
<path d="M112.894 151.464L383.257 378.326L112.894 151.464Z" fill="#5F5FD3"/>
<path d="M112.894 151.464L383.257 378.326" stroke="#6F6F91" stroke-width="3.46"/>
</g>
<g opacity="0.992083">
<path d="M94.0146 94.5142L417.744 418.244L94.0146 94.5142Z" fill="#5F5FD3"/>
<path d="M94.0146 94.5142L417.744 418.244" stroke="#6F6F91" stroke-width="3.46"/>
</g>
<g opacity="0.992083">
<path d="M150.964 113.394L377.826 383.757L150.964 113.394Z" fill="#5F5FD3"/>
<path d="M150.964 113.394L377.826 383.757" stroke="#6F6F91" stroke-width="3.46"/>
</g>
<g opacity="0.992083">
<path d="M192.312 125.513L354.804 357.575L192.312 125.513Z" fill="#5F5FD3"/>
<path d="M192.312 125.513L354.804 357.575" stroke="#6F6F91" stroke-width="3.46"/>
</g>
<g opacity="0.992083">
<path d="M212.476 112.668L354.124 358.008L212.476 112.668Z" fill="#5F5FD3"/>
<path d="M212.476 112.668L354.124 358.008" stroke="#6F6F91" stroke-width="3.46"/>
</g>
<g opacity="0.992083">
<path d="M233.683 101.628L353.408 358.381L233.683 101.628Z" fill="#5F5FD3"/>
<path d="M233.683 101.628L353.408 358.381" stroke="#6F6F91" stroke-width="3.46"/>
</g>
<g opacity="0.992083">
<path d="M243.861 59.7599L364.572 391.409L243.861 59.7599Z" fill="#5F5FD3"/>
<path d="M243.861 59.7599L364.572 391.409" stroke="#6F6F91" stroke-width="3.46"/>
</g>
<g opacity="0.992083">
<path d="M255.986 1L374.479 443.222L255.986 1Z" fill="#5F5FD3"/>
<path d="M255.986 1L374.479 443.222" stroke="#6F6F91" stroke-width="3.46"/>
</g>
<g opacity="0.992083">
<path d="M295.866 45.8253L357.152 393.397L295.866 45.8253Z" fill="#5F5FD3"/>
<path d="M295.866 45.8253L357.152 393.397" stroke="#6F6F91" stroke-width="3.46"/>
</g>
<g opacity="0.992083">
<path d="M325.615 76.9952L350.306 359.212L325.615 76.9952Z" fill="#5F5FD3"/>
<path d="M325.615 76.9952L350.306 359.212" stroke="#6F6F91" stroke-width="3.46"/>
</g>
<g opacity="0.992083">
<path d="M349.5 75.9523V359.247V75.9523Z" fill="#5F5FD3"/>
<path d="M349.5 75.9523V359.247" stroke="#6F6F91" stroke-width="3.46"/>
</g>
<g opacity="0.992083">
<path d="M373.385 76.9952L348.694 359.212L373.385 76.9952Z" fill="#5F5FD3"/>
<path d="M373.385 76.9952L348.694 359.212" stroke="#6F6F91" stroke-width="3.46"/>
</g>
<g opacity="0.992083">
<path d="M403.134 45.8253L341.848 393.397L403.134 45.8253Z" fill="#5F5FD3"/>
<path d="M403.134 45.8253L341.848 393.397" stroke="#6F6F91" stroke-width="3.46"/>
</g>
<g opacity="0.992083">
<path d="M443.014 1.00012L324.521 443.222L443.014 1.00012Z" fill="#5F5FD3"/>
<path d="M443.014 1.00012L324.521 443.222" stroke="#6F6F91" stroke-width="3.46"/>
</g>
<g opacity="0.992083">
<path d="M455.139 59.7599L334.429 391.409L455.139 59.7599Z" fill="#5F5FD3"/>
<path d="M455.139 59.7599L334.429 391.409" stroke="#6F6F91" stroke-width="3.46"/>
</g>
<g opacity="0.992083">
<path d="M465.317 101.628L345.592 358.381L465.317 101.628Z" fill="#5F5FD3"/>
<path d="M465.317 101.628L345.592 358.381" stroke="#6F6F91" stroke-width="3.46"/>
</g>
<g opacity="0.992083">
<path d="M486.524 112.668L344.876 358.008L486.524 112.668Z" fill="#5F5FD3"/>
<path d="M486.524 112.668L344.876 358.008" stroke="#6F6F91" stroke-width="3.46"/>
</g>
<g opacity="0.992083">
<path d="M506.688 125.513L344.196 357.575L506.688 125.513Z" fill="#5F5FD3"/>
<path d="M506.687 125.513L344.196 357.575" stroke="#6F6F91" stroke-width="3.46"/>
</g>
<g opacity="0.992083">
<path d="M548.036 113.394L321.174 383.757L548.036 113.394Z" fill="#5F5FD3"/>
<path d="M548.036 113.394L321.174 383.757" stroke="#6F6F91" stroke-width="3.46"/>
</g>
<g opacity="0.992083">
<path d="M604.986 94.5144L281.256 418.243L604.986 94.5144Z" fill="#5F5FD3"/>
<path d="M604.986 94.5144L281.256 418.243" stroke="#6F6F91" stroke-width="3.46"/>
</g>
<g opacity="0.992083">
<path d="M586.106 151.464L315.743 378.326L586.106 151.464Z" fill="#5F5FD3"/>
<path d="M586.106 151.464L315.743 378.326" stroke="#6F6F91" stroke-width="3.46"/>
</g>
<g opacity="0.992083">
<path d="M573.986 192.813L341.925 355.304L573.986 192.813Z" fill="#5F5FD3"/>
<path d="M573.986 192.813L341.925 355.304" stroke="#6F6F91" stroke-width="3.46"/>
</g>
<g opacity="0.992083">
<path d="M586.832 212.976L341.492 354.624L586.832 212.976Z" fill="#5F5FD3"/>
<path d="M586.832 212.976L341.492 354.624" stroke="#6F6F91" stroke-width="3.46"/>
</g>
<g opacity="0.992083">
<path d="M597.872 234.183L341.119 353.908L597.872 234.183Z" fill="#5F5FD3"/>
<path d="M597.872 234.183L341.119 353.908" stroke="#6F6F91" stroke-width="3.46"/>
</g>
<g opacity="0.992083">
<path d="M639.74 244.361L308.091 365.072L639.74 244.361Z" fill="#5F5FD3"/>
<path d="M639.74 244.361L308.091 365.072" stroke="#6F6F91" stroke-width="3.46"/>
</g>
<g opacity="0.992083">
<path d="M698.5 256.486L256.277 374.979L698.5 256.486Z" fill="#5F5FD3"/>
<path d="M698.5 256.486L256.277 374.979" stroke="#6F6F91" stroke-width="3.46"/>
</g>
<g opacity="0.992083">
<path d="M653.675 296.366L306.103 357.652L653.675 296.366Z" fill="#5F5FD3"/>
<path d="M653.675 296.366L306.103 357.652" stroke="#6F6F91" stroke-width="3.46"/>
</g>
<g opacity="0.992083">
<path d="M657.192 323.081L305.601 353.841L657.192 323.081Z" fill="#5F5FD3"/>
<path d="M657.192 323.081L305.601 353.841" stroke="#6F6F91" stroke-width="3.46"/>
</g>
<path d="M243.105 373.68C243.105 324.672 289.671 292.714 347.112 292.714C404.554 292.714 455.895 302.359 455.895 351.367C455.895 375.871 413.292 382.414 402.88 378.614C398.188 376.901 404.344 400.355 392.292 402.216C385.932 403.198 377.496 386.982 367.837 387.011C363.007 387.025 351.097 387.413 343.709 392.494C336.32 397.574 333.452 407.347 329.809 407.286C323.568 407.182 324.204 398.44 317.388 392.289C311.394 386.88 300.854 387.129 297.3 387.645C290.285 388.663 289.473 405.639 284.045 407.081C279.417 408.31 270.508 393.925 264.643 397.487C255.577 402.993 243.105 398.184 243.105 373.68Z" fill="#11002B" stroke="#9A00BF" stroke-width="9.46499" stroke-linecap="round" stroke-linejoin="round"/>
<path d="M243.105 373.68C243.105 324.672 289.671 292.714 347.112 292.714C404.554 292.714 455.895 302.359 455.895 351.367C455.895 375.871 413.292 382.414 402.88 378.614C398.188 376.901 404.344 400.355 392.292 402.216C385.932 403.198 377.496 386.982 367.837 387.011C363.007 387.025 351.097 387.413 343.709 392.494C336.32 397.574 333.452 407.347 329.809 407.286C323.568 407.182 324.204 398.44 317.388 392.289C311.394 386.88 300.854 387.129 297.3 387.645C290.285 388.663 289.473 405.639 284.045 407.081C279.417 408.31 270.508 393.925 264.643 397.487C255.577 402.993 243.105 398.184 243.105 373.68V373.68Z" stroke="#E4DDDD" stroke-width="9.46499" stroke-linecap="round" stroke-linejoin="round"/>
</svg>
